<?xml version="1.0" encoding="utf-8"?>
<!DOCTYPE svg PUBLIC "-//W3C//DTD SVG 20010904//EN" "http://www.w3.org/TR/2001/REC-SVG-20010904/DTD/svg10.dtd">
<svg version="1.0" xmlns="http://www.w3.org/2000/svg" width="1541px" height="1541px" viewBox="0 0 1541 1541" preserveAspectRatio="xMidYMid meet">
 <g fill="#04eb00">
  <path d="M730 1536.4 c-2.5 -0.2 -11 -0.8 -19 -1.4 -210.6 -15.3 -407.8 -120.1 -541.4 -287.8 -79.2 -99.5 -132.8 -218.8 -154.6 -344.5 -8.5 -49 -10.5 -75.2 -10.5 -134.2 0.1 -50.1 0.7 -62.2 5.5 -99.5 21.6 -166.8 97.9 -321.8 217.6 -441.4 119.6 -119.7 274.6 -196 441.4 -217.6 37.3 -4.8 49.4 -5.4 99.5 -5.5 50.3 0 65.7 0.8 102 5.6 127.4 16.7 247.8 64.8 351.9 140.6 60.1 43.9 116 99 161.1 158.8 79.6 105.7 130.2 229.8 147.4 361 4.7 35.7 5.6 51.9 5.6 100 0 48.1 -0.9 64.3 -5.6 100 -25.1 191.7 -121 365.5 -270.6 490.2 -110.7 92.3 -246.9 151.7 -390.3 170.3 -33.1 4.2 -49.4 5.2 -93 5.5 -23.4 0.1 -44.5 0.1 -47 -0.1z m190.3 -708.2 l268.8 -268.8 -45.8 -44.9 c-25.2 -24.8 -51.8 -50.8 -59.1 -58 l-13.3 -12.9 -208.2 208.2 c-194.5 194.5 -208.4 208.2 -211.6 208.2 -4.2 0 -1 3.1 -101.3 -96.2 l-79.7 -79 -58.6 57.7 c-32.2 31.7 -58.5 58.1 -58.5 58.5 0 1 296.8 296 297.8 296 0.4 0 121.7 -121 269.5 -268.8z"/>
 </g>
 <g fill="#fff">
  <path d="M498.5 952.4 c-83.4 -82.9 -151.5 -151.2 -151.3 -151.8 0.5 -1.7 121.6 -120.6 122.9 -120.6 0.6 0 38.3 36.8 83.8 81.7 45.4 44.9 85.9 84.9 89.9 88.7 l7.2 7.1 210 -210 209.9 -209.9 14.3 14 c67.5 66 108.8 106.9 108.8 107.8 0 1.2 -542 543.6 -543.2 543.6 -0.4 0 -68.9 -67.8 -152.3 -150.6z"/>
 </g>
</svg>