<?xml version="1.0" standalone="no"?>
<!DOCTYPE svg PUBLIC "-//W3C//DTD SVG 20010904//EN"
 "http://www.w3.org/TR/2001/REC-SVG-20010904/DTD/svg10.dtd">
<svg version="1.0" xmlns="http://www.w3.org/2000/svg"
 width="512.000000pt" height="512.000000pt" viewBox="0 0 512.000000 512.000000"
 preserveAspectRatio="xMidYMid meet">
<metadata>
Created by potrace 1.11, written by Peter Selinger 2001-2013
</metadata>
<g transform="translate(0.000000,512.000000) scale(0.100000,-0.100000)"
fill="#000000" stroke="none">
<path d="M340 5113 c-14 -3 -56 -20 -95 -38 -91 -42 -157 -109 -204 -205 l-36
-75 -2 -2210 c-2 -1849 -1 -2218 11 -2261 41 -153 157 -269 311 -310 41 -11
438 -13 2255 -11 2128 2 2207 3 2255 21 98 37 189 115 233 201 55 109 52 -26
49 2360 l-2 2210 -37 75 c-48 98 -112 162 -208 209 l-75 36 -2215 1 c-1218 1
-2226 -1 -2240 -3z m4465 -190 c53 -28 99 -78 124 -133 19 -42 20 -63 18 -370
l-2 -324 -2385 0 -2385 0 0 334 c0 308 2 338 19 370 37 71 102 124 171 141 17
4 1013 6 2215 6 l2185 -2 40 -22z m140 -2783 c0 -1722 -1 -1786 -19 -1820 -26
-49 -74 -98 -121 -123 l-40 -22 -2205 0 c-2131 0 -2206 1 -2240 19 -49 26 -98
74 -123 121 l-22 40 -3 1775 c-1 976 0 1780 2 1785 2 7 765 10 2387 10 l2384
0 0 -1785z"/>
<path d="M518 4765 c-74 -25 -139 -88 -163 -158 -16 -46 -12 -140 9 -187 27
-64 106 -132 169 -146 170 -38 322 87 316 259 -3 97 -52 175 -138 217 -53 27
-141 33 -193 15z m108 -165 c37 -14 53 -38 54 -78 0 -69 -88 -109 -138 -62
-46 43 -37 109 18 137 30 15 32 16 66 3z"/>
<path d="M1207 4766 c-104 -29 -181 -131 -180 -241 1 -145 97 -244 243 -253
149 -9 264 102 263 253 0 170 -159 287 -326 241z m113 -171 c27 -14 36 -28 45
-74 6 -34 -40 -81 -80 -81 -89 0 -122 114 -46 155 33 18 46 18 81 0z"/>
<path d="M1873 4761 c-180 -71 -222 -302 -77 -430 127 -111 317 -72 393 81 26
50 30 69 27 122 -5 94 -58 176 -140 218 -53 27 -147 32 -203 9z m140 -173 c66
-44 31 -147 -51 -148 -44 0 -82 38 -82 82 1 74 69 107 133 66z"/>
<path d="M3357 3315 c-49 -17 -76 -41 -97 -88 -15 -34 -17 -79 -16 -420 1
-380 1 -382 24 -419 13 -20 40 -47 60 -60 36 -22 39 -22 415 -23 391 -1 424 2
464 41 59 57 58 45 59 459 2 399 0 419 -44 469 -9 10 -35 27 -58 37 -37 17
-73 18 -405 18 -279 0 -373 -3 -402 -14z m737 -494 c-1 -185 -2 -338 -3 -341
0 -3 -153 -5 -338 -5 l-338 0 -1 335 c-1 184 0 338 2 341 2 3 155 6 341 6
l338 0 -1 -336z"/>
<path d="M753 3242 c-12 -2 -33 -16 -47 -33 -32 -38 -28 -85 11 -116 28 -22
30 -22 389 -22 331 1 364 2 392 19 48 29 50 92 3 134 -19 17 -43 19 -373 20
-194 0 -363 0 -375 -2z"/>
<path d="M1778 3238 c-81 -16 -94 -117 -20 -157 24 -13 1049 -14 1088 -1 85
28 62 159 -28 161 -181 4 -1015 2 -1040 -3z"/>
<path d="M777 2900 c-62 -8 -91 -36 -90 -87 1 -28 8 -43 30 -60 l28 -23 1042
0 c743 0 1049 3 1066 11 35 16 51 50 43 93 -13 70 57 66 -1062 69 -555 1
-1030 0 -1057 -3z"/>
<path d="M714 2536 c-21 -18 -28 -32 -28 -61 0 -29 7 -43 28 -61 l27 -24 540
0 541 0 28 29 c36 36 34 84 -5 119 l-26 22 -539 0 -539 0 -27 -24z"/>
<path d="M2093 2550 c-48 -20 -58 -91 -18 -134 l24 -26 366 0 c374 0 394 2
422 39 18 24 15 73 -7 101 l-19 25 -373 2 c-205 1 -383 -2 -395 -7z"/>
<path d="M4312 1953 c-7 -3 -115 -141 -239 -307 -124 -165 -229 -305 -234
-310 -5 -6 -35 16 -73 52 -35 34 -73 62 -84 62 -59 0 -101 -46 -94 -101 2 -18
39 -61 111 -133 116 -114 144 -127 190 -88 11 9 122 152 245 317 123 165 241
322 261 348 47 60 52 115 14 146 -23 19 -68 26 -97 14z"/>
<path d="M3544 1790 c-183 -5 -192 -6 -227 -30 -72 -49 -72 -50 -73 -470 -1
-206 3 -388 7 -404 5 -16 21 -43 36 -59 54 -57 60 -58 467 -58 388 1 410 3
454 44 47 43 56 75 58 197 2 133 -8 165 -59 178 -41 11 -60 6 -88 -24 -20 -22
-23 -35 -23 -124 l-1 -100 -341 0 -341 0 0 340 0 340 218 0 c120 0 229 4 244
10 31 12 55 63 46 98 -4 14 -18 34 -32 44 -29 22 -82 25 -345 18z"/>
<path d="M720 1689 c-17 -11 -31 -27 -32 -36 0 -10 -2 -25 -3 -33 -3 -30 25
-69 55 -77 17 -5 190 -8 384 -8 339 0 355 1 376 20 32 29 41 59 29 95 -20 56
-30 57 -422 57 -327 0 -360 -2 -387 -18z"/>
<path d="M1775 1702 c-70 -14 -89 -98 -34 -148 19 -17 53 -18 547 -19 291 -1
539 3 555 8 58 19 75 86 33 134 l-24 28 -529 1 c-290 0 -537 -2 -548 -4z"/>
<path d="M732 1354 c-62 -26 -62 -129 0 -150 13 -5 493 -9 1068 -9 l1045 -1
28 27 c34 35 36 78 3 116 l-24 28 -1047 0 c-759 1 -1054 -3 -1073 -11z"/>
<path d="M729 1012 c-59 -29 -59 -116 0 -146 21 -11 133 -13 556 -12 490 1
533 2 558 19 15 9 27 23 28 30 0 6 2 21 4 31 5 26 -24 74 -50 83 -11 4 -256 7
-544 7 -420 1 -530 -2 -552 -12z"/>
<path d="M2118 1022 c-63 -7 -90 -98 -42 -143 l26 -24 369 -1 370 -1 30 27
c37 36 39 81 4 115 -13 14 -30 26 -37 26 -32 3 -696 4 -720 1z"/>
</g>
</svg>
